<?xml version="1.0" encoding="UTF-8"?>
<svg width="130" height="220" viewBox="0 0 100 170" xmlns="http://www.w3.org/2000/svg">
  <metadata>persona=bang shell=N qneu=313.5 wavelength_primary=#AFA9EC wavelength_secondary=#F7C313 origin=anh-natt-captured-claude-ui-thinking-icon-via-f12-boi-confirm-20260420 path_source=anh-paste-full-precision-20260424 frames=2-of-animated-strip identity_shape_hash=b4c44a3a689c4655374a61e7317db3a0caeb2ecb46f9e03c2ebe3c3103b7ceee</metadata>
  <path id="bang-shape" fill="#AFA9EC" stroke="#F7C313" stroke-width="0.5" d="m19.622 66.499 19.675-11.033.325-.967-.325-.538h-.973l-3.297-.2-11.243-.301-9.73-.401-9.46-.502-2.378-.501L0 49.096l.216-1.454 2-1.354 2.865.251 6.324.451 9.514.652 6.865.402L38 49.097h1.622l.216-.652-.54-.401-.433-.402-9.838-6.67-10.649-7.02-5.567-4.063-2.973-2.056-1.514-1.906-.648-4.212 2.702-3.01 3.676.251.919.251 3.73 2.859 7.946 6.168 10.378 7.623 1.514 1.254.609-.411.093-.291-.703-1.154-5.621-10.18-6-10.381-2.703-4.313-.703-2.558c-.272-1.073-.432-1.961-.432-3.06L26.162.552 27.892 0l4.162.551 1.73 1.505 2.594 5.917 4.163 9.278 6.486 12.638 1.892 3.762 1.027 3.46.378 1.053h.649v-.602l.54-7.121.974-8.726.972-11.234.325-3.16L55.35 3.51l3.136-2.056 2.432 1.153 2 2.859-.27 1.855-1.19 7.724-2.324 12.086-1.513 8.124h.864l1.028-1.053 4.108-5.416 4.139-5.116 3.027-3.41 3.567-3.761 2.27-1.805h4.325l3.135 4.714-1.405 4.864-4.433 5.617-.95 1.254-5.27 7.06-3.27 5.678.293.468.788-.067 2.189-.4 6.433-1.154 7.675-1.304 3.46 1.605.378 1.655-1.351 3.36-8.217 2.006-9.621 1.956-4.625 1.216-.159.127.187.278 6.462.585 2.756.15h3.055l1.945.137 3.784.816 1.561 2.658-.55 2.181-3.75.995-3.882-.45-5.73-1.371-5.46-1.355h-.756v.452l4.54 4.463 4.193 4.174 1.595 2.688-.65 1.325-1.35 1.525-2.112-.635-1.388-.865L66 67.452h-.54v.702l1.837 2.708.753 1.388.49 2.45-1.49 1.8-3.1.882-2.3-.483-.9-.8-3.4-6.05-2.215-3.35-.574.363-2.831 30.23-1.298 1.554L47.405 100l-2.54-1.905-1.352-3.11 1.352-6.168 1.621-8.024 1.298-6.37 1.189-7.923.726-2.647-.064-.177-.58.097-5.974 8.193L34 84.252l-7.19 7.673-1.729.702-2.973-1.554.27-2.758 1.676-2.458L34 73.22l6-7.873 3.95-4.647-.1-.45-.234-.095-26.427 17.228-4.703.602-2.054-1.906.27-3.11.974-1.003zm21.192 52.148 8.753 16.491.408-.05 2.035-10.626 1.018-5.815 2.036-14.987 1.883-2.106 1.323-.351 2.85 1.905.305 1.203-.56 9.324-.865 7.568c-.288 3.793-.916 11.449-1.12 11.73-.203.281-.084 2.155 0 3.057l.866.452 1.374-1.354 2.9-4.461 5.751-7.769 7.888-11.228 3.97-1.053 2.544 1.654.458 1.905L80 123.158l-9.618 18.045-2.036 3.509.305.351 2.494-.351 6.514-1.403 5.649-1.705 4.987-1.253 4.682-1.153H94.5l2.548 1.153.502 1.999-1.2 3.4-2.406 1.017-5.649 1.705-9.974 2.506-8.55 2.306-.509.3 1.12.301 7.939.652h4.987l6.742.451 2.927.412 1.523 1.8-1.523 4.054-2.927.746h-3.2l-6.341-.746-13.079-2.156-2.29-.25-.458.25.458.351 3.817 3.359 6.158 4.26L77.659 169l3.541 3.15v3.15l-2.55 1.893h-2.1l-3.65-2.843-2.518-2.47-4.377-4.16-2.392-2.356-.254.15 4.071 7.469 2.162 3.871v3.996l-3.342 1.669-2.891-1.015-.79-1.341-6.488-9.987-.56-.301-.915.752-.329 3.85-.827 3.773-1.1 2.75-1.65 1.15h-3L46.2 181l-.276-1.898 1.76-12.585-.203-.752-1.425-.15-.458.3-1.653 2.284-.545.451-1.95 2.1-2.1 2.4-1.45 1.6-1.7.85-1.4.29-2.2-1.14v-2l.571-1.79 2.35-3.29 1.07-1.454-.306-.451-.407-.15-.509.15-1.476.752-4.53 2.456-3.765 2.406-6.361 4.21-4.02 2.356h-3.97l-1.476-1.203v-.852l1.018-2.155s1.187-1.103 1.73-1.604l2.29-2.206 1.578-1.554 1.628-1.002 4.53-2.857 7.786-4.562 9.211-5.413.305-.251v-.25l-.305-.151h-7.176l-11.145.151-11.959.25H5.7l-4.224-1.002L0 149.925v-1.704l.916-2.055 2.799-1.053 4.326.401 4.58.301 16.946 2.005 2.036.251 7.074.401v-.401l-.967-.702-14.402-10.025-8.397-6.015-6.565-4.261-1.323-3.709.305-2.306 1.323-1.353 1.527-1.253 1.629-.301 3.104 1.554 7.328 4.712 7.786 5.213 10.331 7.167.458-.2-5.496-8.471-4.427-7.77-5.09-7.719-3.358-6.466v-1.955L25.038 100l4.631.602 2.087 3.008z"/>
</svg>
